<svg xmlns="http://www.w3.org/2000/svg" version="1.1" xmlns:xlink="http://www.w3.org/1999/xlink" xmlns:svgjs="http://svgjs.com/svgjs" width="1600" height="900" preserveAspectRatio="none" viewBox="0 0 1600 900"><g mask="url(&quot;#SvgjsMask1041&quot;)" fill="none"><rect width="1600" height="900" x="0" y="0" fill="url(#SvgjsLinearGradient1042)"></rect><path d="M-88.38 678.61L-88.38 678.61" stroke="#132e65" stroke-width="1.5"></path><path d="M-88.38 678.61L-76.17 858.75" stroke="#132e65" stroke-width="1.5"></path><path d="M-88.38 678.61L73.01 812.28" stroke="#132e65" stroke-width="1.5"></path><path d="M-88.38 678.61L-106.05 969.12" stroke="#132e65" stroke-width="1.5"></path><path d="M-88.38 678.61L64.42 975.03" stroke="#132e65" stroke-width="1.5"></path><path d="M-76.17 858.75L-76.17 858.75" stroke="#132e65" stroke-width="1.5"></path><path d="M-76.17 858.75L-106.05 969.12" stroke="#132e65" stroke-width="1.5"></path><path d="M-76.17 858.75L73.01 812.28" stroke="#132e65" stroke-width="1.5"></path><path d="M-76.17 858.75L64.42 975.03" stroke="#132e65" stroke-width="1.5"></path><path d="M-106.05 969.12L-106.05 969.12" stroke="#132e65" stroke-width="1.5"></path><path d="M-106.05 969.12L64.42 975.03" stroke="#132e65" stroke-width="1.5"></path><path d="M-106.05 969.12L73.01 812.28" stroke="#132e65" stroke-width="1.5"></path><path d="M-106.05 969.12L244.71 849.12" stroke="#132e65" stroke-width="1.5"></path><path d="M73.01 812.28L73.01 812.28" stroke="#132e65" stroke-width="1.5"></path><path d="M73.01 812.28L64.42 975.03" stroke="#132e65" stroke-width="1.5"></path><path d="M64.42 975.03L64.42 975.03" stroke="#132e65" stroke-width="1.5"></path><path d="M246.84 530.56L246.84 530.56" stroke="#132e65" stroke-width="1.5"></path><path d="M246.84 530.56L374.79 546.35" stroke="#132e65" stroke-width="1.5"></path><path d="M246.84 530.56L350.61 649.72" stroke="#132e65" stroke-width="1.5"></path><path d="M246.84 530.56L554.02 549.18" stroke="#132e65" stroke-width="1.5"></path><path d="M246.84 530.56L244.71 849.12" stroke="#132e65" stroke-width="1.5"></path><path d="M246.84 530.56L73.01 812.28" stroke="#132e65" stroke-width="1.5"></path><path d="M244.71 849.12L244.71 849.12" stroke="#132e65" stroke-width="1.5"></path><path d="M244.71 849.12L382.8 846.75" stroke="#132e65" stroke-width="1.5"></path><path d="M244.71 849.12L73.01 812.28" stroke="#132e65" stroke-width="1.5"></path><path d="M244.71 849.12L64.42 975.03" stroke="#132e65" stroke-width="1.5"></path><path d="M244.71 849.12L406.75 997.96" stroke="#132e65" stroke-width="1.5"></path><path d="M374.79 546.35L374.79 546.35" stroke="#132e65" stroke-width="1.5"></path><path d="M374.79 546.35L350.61 649.72" stroke="#132e65" stroke-width="1.5"></path><path d="M350.61 649.72L350.61 649.72" stroke="#132e65" stroke-width="1.5"></path><path d="M350.61 649.72L382.8 846.75" stroke="#132e65" stroke-width="1.5"></path><path d="M350.61 649.72L244.71 849.12" stroke="#132e65" stroke-width="1.5"></path><path d="M382.8 846.75L382.8 846.75" stroke="#132e65" stroke-width="1.5"></path><path d="M382.8 846.75L518.17 850.73" stroke="#132e65" stroke-width="1.5"></path><path d="M406.75 997.96L406.75 997.96" stroke="#132e65" stroke-width="1.5"></path><path d="M406.75 997.96L534.42 992.71" stroke="#132e65" stroke-width="1.5"></path><path d="M406.75 997.96L382.8 846.75" stroke="#132e65" stroke-width="1.5"></path><path d="M406.75 997.96L518.17 850.73" stroke="#132e65" stroke-width="1.5"></path><path d="M554.02 549.18L554.02 549.18" stroke="#132e65" stroke-width="1.5"></path><path d="M554.02 549.18L655.92 526.85" stroke="#132e65" stroke-width="1.5"></path><path d="M554.02 549.18L374.79 546.35" stroke="#132e65" stroke-width="1.5"></path><path d="M554.02 549.18L682.03 706.97" stroke="#132e65" stroke-width="1.5"></path><path d="M554.02 549.18L350.61 649.72" stroke="#132e65" stroke-width="1.5"></path><path d="M554.02 549.18L789.1 665.02" stroke="#132e65" stroke-width="1.5"></path><path d="M518.17 850.73L518.17 850.73" stroke="#132e65" stroke-width="1.5"></path><path d="M518.17 850.73L651.28 853.96" stroke="#132e65" stroke-width="1.5"></path><path d="M518.17 850.73L534.42 992.71" stroke="#132e65" stroke-width="1.5"></path><path d="M534.42 992.71L534.42 992.71" stroke="#132e65" stroke-width="1.5"></path><path d="M534.42 992.71L674.05 970.78" stroke="#132e65" stroke-width="1.5"></path><path d="M655.92 526.85L655.92 526.85" stroke="#132e65" stroke-width="1.5"></path><path d="M655.92 526.85L682.03 706.97" stroke="#132e65" stroke-width="1.5"></path><path d="M682.03 706.97L682.03 706.97" stroke="#132e65" stroke-width="1.5"></path><path d="M682.03 706.97L789.1 665.02" stroke="#132e65" stroke-width="1.5"></path><path d="M651.28 853.96L651.28 853.96" stroke="#132e65" stroke-width="1.5"></path><path d="M651.28 853.96L674.05 970.78" stroke="#132e65" stroke-width="1.5"></path><path d="M651.28 853.96L682.03 706.97" stroke="#132e65" stroke-width="1.5"></path><path d="M651.28 853.96L534.42 992.71" stroke="#132e65" stroke-width="1.5"></path><path d="M651.28 853.96L854.38 845.23" stroke="#132e65" stroke-width="1.5"></path><path d="M674.05 970.78L674.05 970.78" stroke="#132e65" stroke-width="1.5"></path><path d="M674.05 970.78L820.21 996.84" stroke="#132e65" stroke-width="1.5"></path><path d="M674.05 970.78L518.17 850.73" stroke="#132e65" stroke-width="1.5"></path><path d="M848.9 524.54L848.9 524.54" stroke="#132e65" stroke-width="1.5"></path><path d="M848.9 524.54L974.89 503.45" stroke="#132e65" stroke-width="1.5"></path><path d="M848.9 524.54L789.1 665.02" stroke="#132e65" stroke-width="1.5"></path><path d="M848.9 524.54L655.92 526.85" stroke="#132e65" stroke-width="1.5"></path><path d="M789.1 665.02L789.1 665.02" stroke="#132e65" stroke-width="1.5"></path><path d="M789.1 665.02L854.38 845.23" stroke="#132e65" stroke-width="1.5"></path><path d="M789.1 665.02L655.92 526.85" stroke="#132e65" stroke-width="1.5"></path><path d="M854.38 845.23L854.38 845.23" stroke="#132e65" stroke-width="1.5"></path><path d="M854.38 845.23L942.65 832.36" stroke="#132e65" stroke-width="1.5"></path><path d="M854.38 845.23L820.21 996.84" stroke="#132e65" stroke-width="1.5"></path><path d="M854.38 845.23L974.94 1005.73" stroke="#132e65" stroke-width="1.5"></path><path d="M820.21 996.84L820.21 996.84" stroke="#132e65" stroke-width="1.5"></path><path d="M820.21 996.84L974.94 1005.73" stroke="#132e65" stroke-width="1.5"></path><path d="M820.21 996.84L942.65 832.36" stroke="#132e65" stroke-width="1.5"></path><path d="M1004.44 -86.94L1004.44 -86.94" stroke="#132e65" stroke-width="1.5"></path><path d="M1004.44 -86.94L1089.96 -70.25" stroke="#132e65" stroke-width="1.5"></path><path d="M1004.44 -86.94L979.24 80.85" stroke="#132e65" stroke-width="1.5"></path><path d="M1004.44 -86.94L1112.24 85.59" stroke="#132e65" stroke-width="1.5"></path><path d="M1004.44 -86.94L1271.3 45.56" stroke="#132e65" stroke-width="1.5"></path><path d="M1004.44 -86.94L964.29 220.21" stroke="#132e65" stroke-width="1.5"></path><path d="M979.24 80.85L979.24 80.85" stroke="#132e65" stroke-width="1.5"></path><path d="M979.24 80.85L1112.24 85.59" stroke="#132e65" stroke-width="1.5"></path><path d="M979.24 80.85L964.29 220.21" stroke="#132e65" stroke-width="1.5"></path><path d="M979.24 80.85L1089.96 -70.25" stroke="#132e65" stroke-width="1.5"></path><path d="M979.24 80.85L1113.89 229.12" stroke="#132e65" stroke-width="1.5"></path><path d="M979.24 80.85L971.16 343.02" stroke="#132e65" stroke-width="1.5"></path><path d="M964.29 220.21L964.29 220.21" stroke="#132e65" stroke-width="1.5"></path><path d="M964.29 220.21L971.16 343.02" stroke="#132e65" stroke-width="1.5"></path><path d="M964.29 220.21L1113.89 229.12" stroke="#132e65" stroke-width="1.5"></path><path d="M971.16 343.02L971.16 343.02" stroke="#132e65" stroke-width="1.5"></path><path d="M971.16 343.02L974.89 503.45" stroke="#132e65" stroke-width="1.5"></path><path d="M971.16 343.02L1113.89 229.12" stroke="#132e65" stroke-width="1.5"></path><path d="M971.16 343.02L1153.79 391.15" stroke="#132e65" stroke-width="1.5"></path><path d="M971.16 343.02L848.9 524.54" stroke="#132e65" stroke-width="1.5"></path><path d="M974.89 503.45L974.89 503.45" stroke="#132e65" stroke-width="1.5"></path><path d="M974.89 503.45L1094.07 535.35" stroke="#132e65" stroke-width="1.5"></path><path d="M1005.44 690.22L1005.44 690.22" stroke="#132e65" stroke-width="1.5"></path><path d="M1005.44 690.22L1132.96 698.9" stroke="#132e65" stroke-width="1.5"></path><path d="M1005.44 690.22L1099.7 796.54" stroke="#132e65" stroke-width="1.5"></path><path d="M1005.44 690.22L942.65 832.36" stroke="#132e65" stroke-width="1.5"></path><path d="M1005.44 690.22L1094.07 535.35" stroke="#132e65" stroke-width="1.5"></path><path d="M1005.44 690.22L974.89 503.45" stroke="#132e65" stroke-width="1.5"></path><path d="M1005.44 690.22L854.38 845.23" stroke="#132e65" stroke-width="1.5"></path><path d="M942.65 832.36L942.65 832.36" stroke="#132e65" stroke-width="1.5"></path><path d="M942.65 832.36L1099.7 796.54" stroke="#132e65" stroke-width="1.5"></path><path d="M942.65 832.36L974.94 1005.73" stroke="#132e65" stroke-width="1.5"></path><path d="M974.94 1005.73L974.94 1005.73" stroke="#132e65" stroke-width="1.5"></path><path d="M974.94 1005.73L1123.61 972.48" stroke="#132e65" stroke-width="1.5"></path><path d="M1089.96 -70.25L1089.96 -70.25" stroke="#132e65" stroke-width="1.5"></path><path d="M1112.24 85.59L1112.24 85.59" stroke="#132e65" stroke-width="1.5"></path><path d="M1112.24 85.59L1113.89 229.12" stroke="#132e65" stroke-width="1.5"></path><path d="M1112.24 85.59L1089.96 -70.25" stroke="#132e65" stroke-width="1.5"></path><path d="M1112.24 85.59L1271.3 45.56" stroke="#132e65" stroke-width="1.5"></path><path d="M1113.89 229.12L1113.89 229.12" stroke="#132e65" stroke-width="1.5"></path><path d="M1153.79 391.15L1153.79 391.15" stroke="#132e65" stroke-width="1.5"></path><path d="M1153.79 391.15L1254.22 390.14" stroke="#132e65" stroke-width="1.5"></path><path d="M1153.79 391.15L1094.07 535.35" stroke="#132e65" stroke-width="1.5"></path><path d="M1153.79 391.15L1113.89 229.12" stroke="#132e65" stroke-width="1.5"></path><path d="M1153.79 391.15L1288.55 247.25" stroke="#132e65" stroke-width="1.5"></path><path d="M1094.07 535.35L1094.07 535.35" stroke="#132e65" stroke-width="1.5"></path><path d="M1132.96 698.9L1132.96 698.9" stroke="#132e65" stroke-width="1.5"></path><path d="M1132.96 698.9L1099.7 796.54" stroke="#132e65" stroke-width="1.5"></path><path d="M1099.7 796.54L1099.7 796.54" stroke="#132e65" stroke-width="1.5"></path><path d="M1123.61 972.48L1123.61 972.48" stroke="#132e65" stroke-width="1.5"></path><path d="M1123.61 972.48L1244.3 970.07" stroke="#132e65" stroke-width="1.5"></path><path d="M1123.61 972.48L1099.7 796.54" stroke="#132e65" stroke-width="1.5"></path><path d="M1123.61 972.48L1305.9 854.39" stroke="#132e65" stroke-width="1.5"></path><path d="M1123.61 972.48L942.65 832.36" stroke="#132e65" stroke-width="1.5"></path><path d="M1123.61 972.48L1132.96 698.9" stroke="#132e65" stroke-width="1.5"></path><path d="M1271.3 45.56L1271.3 45.56" stroke="#132e65" stroke-width="1.5"></path><path d="M1271.3 45.56L1443.19 66.9" stroke="#132e65" stroke-width="1.5"></path><path d="M1288.55 247.25L1288.55 247.25" stroke="#132e65" stroke-width="1.5"></path><path d="M1288.55 247.25L1254.22 390.14" stroke="#132e65" stroke-width="1.5"></path><path d="M1288.55 247.25L1391.82 352.61" stroke="#132e65" stroke-width="1.5"></path><path d="M1254.22 390.14L1254.22 390.14" stroke="#132e65" stroke-width="1.5"></path><path d="M1254.22 390.14L1391.82 352.61" stroke="#132e65" stroke-width="1.5"></path><path d="M1254.22 390.14L1285.33 539.64" stroke="#132e65" stroke-width="1.5"></path><path d="M1285.33 539.64L1285.33 539.64" stroke="#132e65" stroke-width="1.5"></path><path d="M1285.33 539.64L1395.86 494.16" stroke="#132e65" stroke-width="1.5"></path><path d="M1285.33 539.64L1297.11 661" stroke="#132e65" stroke-width="1.5"></path><path d="M1297.11 661L1297.11 661" stroke="#132e65" stroke-width="1.5"></path><path d="M1297.11 661L1401.65 706.28" stroke="#132e65" stroke-width="1.5"></path><path d="M1305.9 854.39L1305.9 854.39" stroke="#132e65" stroke-width="1.5"></path><path d="M1305.9 854.39L1426.92 832.51" stroke="#132e65" stroke-width="1.5"></path><path d="M1305.9 854.39L1244.3 970.07" stroke="#132e65" stroke-width="1.5"></path><path d="M1305.9 854.39L1401.65 706.28" stroke="#132e65" stroke-width="1.5"></path><path d="M1244.3 970.07L1244.3 970.07" stroke="#132e65" stroke-width="1.5"></path><path d="M1244.3 970.07L1099.7 796.54" stroke="#132e65" stroke-width="1.5"></path><path d="M1442.86 -74.69L1442.86 -74.69" stroke="#132e65" stroke-width="1.5"></path><path d="M1442.86 -74.69L1542.98 -92.06" stroke="#132e65" stroke-width="1.5"></path><path d="M1442.86 -74.69L1443.19 66.9" stroke="#132e65" stroke-width="1.5"></path><path d="M1442.86 -74.69L1271.3 45.56" stroke="#132e65" stroke-width="1.5"></path><path d="M1442.86 -74.69L1587.59 77.41" stroke="#132e65" stroke-width="1.5"></path><path d="M1442.86 -74.69L1460.99 188.16" stroke="#132e65" stroke-width="1.5"></path><path d="M1442.86 -74.69L1745.59 -72.72" stroke="#132e65" stroke-width="1.5"></path><path d="M1443.19 66.9L1443.19 66.9" stroke="#132e65" stroke-width="1.5"></path><path d="M1443.19 66.9L1460.99 188.16" stroke="#132e65" stroke-width="1.5"></path><path d="M1443.19 66.9L1587.59 77.41" stroke="#132e65" stroke-width="1.5"></path><path d="M1460.99 188.16L1460.99 188.16" stroke="#132e65" stroke-width="1.5"></path><path d="M1460.99 188.16L1608.72 225.53" stroke="#132e65" stroke-width="1.5"></path><path d="M1460.99 188.16L1587.59 77.41" stroke="#132e65" stroke-width="1.5"></path><path d="M1460.99 188.16L1391.82 352.61" stroke="#132e65" stroke-width="1.5"></path><path d="M1460.99 188.16L1288.55 247.25" stroke="#132e65" stroke-width="1.5"></path><path d="M1391.82 352.61L1391.82 352.61" stroke="#132e65" stroke-width="1.5"></path><path d="M1391.82 352.61L1395.86 494.16" stroke="#132e65" stroke-width="1.5"></path><path d="M1391.82 352.61L1285.33 539.64" stroke="#132e65" stroke-width="1.5"></path><path d="M1391.82 352.61L1607.58 372.49" stroke="#132e65" stroke-width="1.5"></path><path d="M1395.86 494.16L1395.86 494.16" stroke="#132e65" stroke-width="1.5"></path><path d="M1401.65 706.28L1401.65 706.28" stroke="#132e65" stroke-width="1.5"></path><path d="M1401.65 706.28L1426.92 832.51" stroke="#132e65" stroke-width="1.5"></path><path d="M1401.65 706.28L1549.56 666.25" stroke="#132e65" stroke-width="1.5"></path><path d="M1401.65 706.28L1285.33 539.64" stroke="#132e65" stroke-width="1.5"></path><path d="M1401.65 706.28L1395.86 494.16" stroke="#132e65" stroke-width="1.5"></path><path d="M1426.92 832.51L1426.92 832.51" stroke="#132e65" stroke-width="1.5"></path><path d="M1542.98 -92.06L1542.98 -92.06" stroke="#132e65" stroke-width="1.5"></path><path d="M1542.98 -92.06L1587.59 77.41" stroke="#132e65" stroke-width="1.5"></path><path d="M1542.98 -92.06L1443.19 66.9" stroke="#132e65" stroke-width="1.5"></path><path d="M1587.59 77.41L1587.59 77.41" stroke="#132e65" stroke-width="1.5"></path><path d="M1587.59 77.41L1691.52 107.48" stroke="#132e65" stroke-width="1.5"></path><path d="M1608.72 225.53L1608.72 225.53" stroke="#132e65" stroke-width="1.5"></path><path d="M1608.72 225.53L1748.29 261.21" stroke="#132e65" stroke-width="1.5"></path><path d="M1608.72 225.53L1691.52 107.48" stroke="#132e65" stroke-width="1.5"></path><path d="M1608.72 225.53L1607.58 372.49" stroke="#132e65" stroke-width="1.5"></path><path d="M1608.72 225.53L1587.59 77.41" stroke="#132e65" stroke-width="1.5"></path><path d="M1607.58 372.49L1607.58 372.49" stroke="#132e65" stroke-width="1.5"></path><path d="M1607.58 372.49L1733.54 357.4" stroke="#132e65" stroke-width="1.5"></path><path d="M1607.58 372.49L1553.91 522.08" stroke="#132e65" stroke-width="1.5"></path><path d="M1607.58 372.49L1748.29 261.21" stroke="#132e65" stroke-width="1.5"></path><path d="M1607.58 372.49L1688.59 538.13" stroke="#132e65" stroke-width="1.5"></path><path d="M1553.91 522.08L1553.91 522.08" stroke="#132e65" stroke-width="1.5"></path><path d="M1553.91 522.08L1688.59 538.13" stroke="#132e65" stroke-width="1.5"></path><path d="M1553.91 522.08L1549.56 666.25" stroke="#132e65" stroke-width="1.5"></path><path d="M1553.91 522.08L1395.86 494.16" stroke="#132e65" stroke-width="1.5"></path><path d="M1553.91 522.08L1391.82 352.61" stroke="#132e65" stroke-width="1.5"></path><path d="M1549.56 666.25L1549.56 666.25" stroke="#132e65" stroke-width="1.5"></path><path d="M1582.73 973.9L1582.73 973.9" stroke="#132e65" stroke-width="1.5"></path><path d="M1582.73 973.9L1724.6 1005.53" stroke="#132e65" stroke-width="1.5"></path><path d="M1582.73 973.9L1426.92 832.51" stroke="#132e65" stroke-width="1.5"></path><path d="M1582.73 973.9L1734.64 788.25" stroke="#132e65" stroke-width="1.5"></path><path d="M1745.59 -72.72L1745.59 -72.72" stroke="#132e65" stroke-width="1.5"></path><path d="M1745.59 -72.72L1691.52 107.48" stroke="#132e65" stroke-width="1.5"></path><path d="M1745.59 -72.72L1542.98 -92.06" stroke="#132e65" stroke-width="1.5"></path><path d="M1745.59 -72.72L1587.59 77.41" stroke="#132e65" stroke-width="1.5"></path><path d="M1691.52 107.48L1691.52 107.48" stroke="#132e65" stroke-width="1.5"></path><path d="M1691.52 107.48L1748.29 261.21" stroke="#132e65" stroke-width="1.5"></path><path d="M1748.29 261.21L1748.29 261.21" stroke="#132e65" stroke-width="1.5"></path><path d="M1748.29 261.21L1733.54 357.4" stroke="#132e65" stroke-width="1.5"></path><path d="M1748.29 261.21L1587.59 77.41" stroke="#132e65" stroke-width="1.5"></path><path d="M1733.54 357.4L1733.54 357.4" stroke="#132e65" stroke-width="1.5"></path><path d="M1733.54 357.4L1608.72 225.53" stroke="#132e65" stroke-width="1.5"></path><path d="M1733.54 357.4L1688.59 538.13" stroke="#132e65" stroke-width="1.5"></path><path d="M1733.54 357.4L1553.91 522.08" stroke="#132e65" stroke-width="1.5"></path><path d="M1733.54 357.4L1691.52 107.48" stroke="#132e65" stroke-width="1.5"></path><path d="M1688.59 538.13L1688.59 538.13" stroke="#132e65" stroke-width="1.5"></path><path d="M1688.59 538.13L1744.49 676.57" stroke="#132e65" stroke-width="1.5"></path><path d="M1744.49 676.57L1744.49 676.57" stroke="#132e65" stroke-width="1.5"></path><path d="M1744.49 676.57L1734.64 788.25" stroke="#132e65" stroke-width="1.5"></path><path d="M1734.64 788.25L1734.64 788.25" stroke="#132e65" stroke-width="1.5"></path><path d="M1734.64 788.25L1724.6 1005.53" stroke="#132e65" stroke-width="1.5"></path><path d="M1734.64 788.25L1549.56 666.25" stroke="#132e65" stroke-width="1.5"></path><path d="M1734.64 788.25L1688.59 538.13" stroke="#132e65" stroke-width="1.5"></path><path d="M1724.6 1005.53L1724.6 1005.53" stroke="#132e65" stroke-width="1.5"></path><path d="M1724.6 1005.53L1744.49 676.57" stroke="#132e65" stroke-width="1.5"></path><circle r="5" cx="-88.38" cy="678.61" fill="#132e65"></circle><circle r="5" cx="-76.17" cy="858.75" fill="#132e65"></circle><circle r="5" cx="-106.05" cy="969.12" fill="#132e65"></circle><circle r="5" cx="73.01" cy="812.28" fill="#132e65"></circle><circle r="5" cx="64.42" cy="975.03" fill="#132e65"></circle><circle r="5" cx="246.84" cy="530.56" fill="#132e65"></circle><circle r="5" cx="244.71" cy="849.12" fill="#132e65"></circle><circle r="5" cx="374.79" cy="546.35" fill="#132e65"></circle><circle r="5" cx="350.61" cy="649.72" fill="#132e65"></circle><circle r="5" cx="382.8" cy="846.75" fill="#132e65"></circle><circle r="5" cx="406.75" cy="997.96" fill="#132e65"></circle><circle r="5" cx="554.02" cy="549.18" fill="#132e65"></circle><circle r="5" cx="518.17" cy="850.73" fill="#132e65"></circle><circle r="5" cx="534.42" cy="992.71" fill="#132e65"></circle><circle r="5" cx="655.92" cy="526.85" fill="#132e65"></circle><circle r="5" cx="682.03" cy="706.97" fill="#132e65"></circle><circle r="5" cx="651.28" cy="853.96" fill="#132e65"></circle><circle r="5" cx="674.05" cy="970.78" fill="#132e65"></circle><circle r="5" cx="848.9" cy="524.54" fill="#132e65"></circle><circle r="5" cx="789.1" cy="665.02" fill="#132e65"></circle><circle r="5" cx="854.38" cy="845.23" fill="#132e65"></circle><circle r="5" cx="820.21" cy="996.84" fill="#132e65"></circle><circle r="5" cx="1004.44" cy="-86.94" fill="#132e65"></circle><circle r="5" cx="979.24" cy="80.85" fill="#132e65"></circle><circle r="5" cx="964.29" cy="220.21" fill="#132e65"></circle><circle r="5" cx="971.16" cy="343.02" fill="#132e65"></circle><circle r="5" cx="974.89" cy="503.45" fill="#132e65"></circle><circle r="5" cx="1005.44" cy="690.22" fill="#132e65"></circle><circle r="5" cx="942.65" cy="832.36" fill="#132e65"></circle><circle r="5" cx="974.94" cy="1005.73" fill="#132e65"></circle><circle r="5" cx="1089.96" cy="-70.25" fill="#132e65"></circle><circle r="5" cx="1112.24" cy="85.59" fill="#132e65"></circle><circle r="5" cx="1113.89" cy="229.12" fill="#132e65"></circle><circle r="5" cx="1153.79" cy="391.15" fill="#132e65"></circle><circle r="5" cx="1094.07" cy="535.35" fill="#132e65"></circle><circle r="5" cx="1132.96" cy="698.9" fill="#132e65"></circle><circle r="5" cx="1099.7" cy="796.54" fill="#132e65"></circle><circle r="5" cx="1123.61" cy="972.48" fill="#132e65"></circle><circle r="5" cx="1271.3" cy="45.56" fill="#132e65"></circle><circle r="5" cx="1288.55" cy="247.25" fill="#132e65"></circle><circle r="5" cx="1254.22" cy="390.14" fill="#132e65"></circle><circle r="5" cx="1285.33" cy="539.64" fill="#132e65"></circle><circle r="5" cx="1297.11" cy="661" fill="#132e65"></circle><circle r="5" cx="1305.9" cy="854.39" fill="#132e65"></circle><circle r="5" cx="1244.3" cy="970.07" fill="#132e65"></circle><circle r="5" cx="1442.86" cy="-74.69" fill="#132e65"></circle><circle r="5" cx="1443.19" cy="66.9" fill="#132e65"></circle><circle r="5" cx="1460.99" cy="188.16" fill="#132e65"></circle><circle r="5" cx="1391.82" cy="352.61" fill="#132e65"></circle><circle r="5" cx="1395.86" cy="494.16" fill="#132e65"></circle><circle r="5" cx="1401.65" cy="706.28" fill="#132e65"></circle><circle r="5" cx="1426.92" cy="832.51" fill="#132e65"></circle><circle r="5" cx="1542.98" cy="-92.06" fill="#132e65"></circle><circle r="5" cx="1587.59" cy="77.41" fill="#132e65"></circle><circle r="5" cx="1608.72" cy="225.53" fill="#132e65"></circle><circle r="5" cx="1607.58" cy="372.49" fill="#132e65"></circle><circle r="5" cx="1553.91" cy="522.08" fill="#132e65"></circle><circle r="5" cx="1549.56" cy="666.25" fill="#132e65"></circle><circle r="5" cx="1582.73" cy="973.9" fill="#132e65"></circle><circle r="5" cx="1745.59" cy="-72.72" fill="#132e65"></circle><circle r="5" cx="1691.52" cy="107.48" fill="#132e65"></circle><circle r="5" cx="1748.29" cy="261.21" fill="#132e65"></circle><circle r="5" cx="1733.54" cy="357.4" fill="#132e65"></circle><circle r="5" cx="1688.59" cy="538.13" fill="#132e65"></circle><circle r="5" cx="1744.49" cy="676.57" fill="#132e65"></circle><circle r="5" cx="1734.64" cy="788.25" fill="#132e65"></circle><circle r="5" cx="1724.6" cy="1005.53" fill="#132e65"></circle><path d="M508.2 671.02L508.2 671.02" stroke="hsl(228.5, 77.2%, 51.5%)" stroke-width="1.5"></path><path d="M508.2 671.02L673.19 694.04" stroke="hsl(228.5, 77.2%, 51.5%)" stroke-width="1.5"></path><path d="M508.2 671.02L533.64 858.34" stroke="hsl(228.5, 77.2%, 51.5%)" stroke-width="1.5"></path><path d="M508.2 671.02L643.73 835.18" stroke="hsl(228.5, 77.2%, 51.5%)" stroke-width="1.5"></path><path d="M536.23 991.79L536.23 991.79" stroke="hsl(228.5, 77.2%, 51.5%)" stroke-width="1.5"></path><path d="M536.23 991.79L533.64 858.34" stroke="hsl(228.5, 77.2%, 51.5%)" stroke-width="1.5"></path><path d="M536.23 991.79L703.37 981.57" stroke="hsl(228.5, 77.2%, 51.5%)" stroke-width="1.5"></path><path d="M643.73 835.18L643.73 835.18" stroke="hsl(228.5, 77.2%, 51.5%)" stroke-width="1.5"></path><path d="M643.73 835.18L533.64 858.34" stroke="hsl(228.5, 77.2%, 51.5%)" stroke-width="1.5"></path><path d="M643.73 835.18L673.19 694.04" stroke="hsl(228.5, 77.2%, 51.5%)" stroke-width="1.5"></path><path d="M643.73 835.18L703.37 981.57" stroke="hsl(228.5, 77.2%, 51.5%)" stroke-width="1.5"></path><path d="M643.73 835.18L536.23 991.79" stroke="hsl(228.5, 77.2%, 51.5%)" stroke-width="1.5"></path><path d="M643.73 835.18L846.51 798.92" stroke="hsl(228.5, 77.2%, 51.5%)" stroke-width="1.5"></path><path d="M962.55 709.1L962.55 709.1" stroke="hsl(228.5, 77.2%, 51.5%)" stroke-width="1.5"></path><path d="M962.55 709.1L862.39 657.12" stroke="hsl(228.5, 77.2%, 51.5%)" stroke-width="1.5"></path><path d="M962.55 709.1L955.53 822.55" stroke="hsl(228.5, 77.2%, 51.5%)" stroke-width="1.5"></path><path d="M962.55 709.1L846.51 798.92" stroke="hsl(228.5, 77.2%, 51.5%)" stroke-width="1.5"></path><path d="M1285.87 545.99L1285.87 545.99" stroke="hsl(228.5, 77.2%, 51.5%)" stroke-width="1.5"></path><path d="M1285.87 545.99L1402.16 550.21" stroke="hsl(228.5, 77.2%, 51.5%)" stroke-width="1.5"></path><path d="M1285.87 545.99L1268.9 673.37" stroke="hsl(228.5, 77.2%, 51.5%)" stroke-width="1.5"></path><path d="M1285.87 545.99L1290.61 377.98" stroke="hsl(228.5, 77.2%, 51.5%)" stroke-width="1.5"></path><path d="M1285.87 545.99L1097.53 531.33" stroke="hsl(228.5, 77.2%, 51.5%)" stroke-width="1.5"></path><path d="M1285.87 545.99L1156.86 701.85" stroke="hsl(228.5, 77.2%, 51.5%)" stroke-width="1.5"></path><path d="M1285.87 545.99L1445.35 672.23" stroke="hsl(228.5, 77.2%, 51.5%)" stroke-width="1.5"></path><path d="M1284.17 802.12L1284.17 802.12" stroke="hsl(228.5, 77.2%, 51.5%)" stroke-width="1.5"></path><path d="M1284.17 802.12L1268.9 673.37" stroke="hsl(228.5, 77.2%, 51.5%)" stroke-width="1.5"></path><path d="M1256.97 974.72L1256.97 974.72" stroke="hsl(228.5, 77.2%, 51.5%)" stroke-width="1.5"></path><path d="M1256.97 974.72L1138.23 951.26" stroke="hsl(228.5, 77.2%, 51.5%)" stroke-width="1.5"></path><path d="M1256.97 974.72L1284.17 802.12" stroke="hsl(228.5, 77.2%, 51.5%)" stroke-width="1.5"></path><path d="M1256.97 974.72L1132.41 822.92" stroke="hsl(228.5, 77.2%, 51.5%)" stroke-width="1.5"></path><path d="M1433.73 89.4L1433.73 89.4" stroke="hsl(228.5, 77.2%, 51.5%)" stroke-width="1.5"></path><path d="M1433.73 89.4L1556.91 102.78" stroke="hsl(228.5, 77.2%, 51.5%)" stroke-width="1.5"></path><path d="M1433.73 89.4L1297.8 65.54" stroke="hsl(228.5, 77.2%, 51.5%)" stroke-width="1.5"></path><path d="M1460.48 240.39L1460.48 240.39" stroke="hsl(228.5, 77.2%, 51.5%)" stroke-width="1.5"></path><path d="M1460.48 240.39L1563.61 255.93" stroke="hsl(228.5, 77.2%, 51.5%)" stroke-width="1.5"></path><path d="M1460.48 240.39L1423.92 355.57" stroke="hsl(228.5, 77.2%, 51.5%)" stroke-width="1.5"></path><path d="M1460.48 240.39L1433.73 89.4" stroke="hsl(228.5, 77.2%, 51.5%)" stroke-width="1.5"></path><path d="M1563.61 255.93L1563.61 255.93" stroke="hsl(228.5, 77.2%, 51.5%)" stroke-width="1.5"></path><path d="M1563.61 255.93L1559.24 393.94" stroke="hsl(228.5, 77.2%, 51.5%)" stroke-width="1.5"></path><path d="M1541.46 490.16L1541.46 490.16" stroke="hsl(228.5, 77.2%, 51.5%)" stroke-width="1.5"></path><path d="M1541.46 490.16L1559.24 393.94" stroke="hsl(228.5, 77.2%, 51.5%)" stroke-width="1.5"></path><path d="M1541.46 490.16L1402.16 550.21" stroke="hsl(228.5, 77.2%, 51.5%)" stroke-width="1.5"></path><path d="M1541.46 490.16L1548.73 650.07" stroke="hsl(228.5, 77.2%, 51.5%)" stroke-width="1.5"></path><path d="M1541.46 490.16L1710.27 535.06" stroke="hsl(228.5, 77.2%, 51.5%)" stroke-width="1.5"></path><path d="M1541.46 490.16L1423.92 355.57" stroke="hsl(228.5, 77.2%, 51.5%)" stroke-width="1.5"></path><path d="M1541.46 490.16L1445.35 672.23" stroke="hsl(228.5, 77.2%, 51.5%)" stroke-width="1.5"></path><path d="M1593.59 809.08L1593.59 809.08" stroke="hsl(228.5, 77.2%, 51.5%)" stroke-width="1.5"></path><path d="M1593.59 809.08L1749.03 815.45" stroke="hsl(228.5, 77.2%, 51.5%)" stroke-width="1.5"></path><path d="M1593.59 809.08L1558.51 961.43" stroke="hsl(228.5, 77.2%, 51.5%)" stroke-width="1.5"></path><path d="M1593.59 809.08L1548.73 650.07" stroke="hsl(228.5, 77.2%, 51.5%)" stroke-width="1.5"></path><path d="M1593.59 809.08L1742.84 712.06" stroke="hsl(228.5, 77.2%, 51.5%)" stroke-width="1.5"></path><path d="M1558.51 961.43L1558.51 961.43" stroke="hsl(228.5, 77.2%, 51.5%)" stroke-width="1.5"></path><path d="M1558.51 961.43L1457.37 947.01" stroke="hsl(228.5, 77.2%, 51.5%)" stroke-width="1.5"></path><path d="M1558.51 961.43L1689.34 977.92" stroke="hsl(228.5, 77.2%, 51.5%)" stroke-width="1.5"></path><path d="M1558.51 961.43L1749.03 815.45" stroke="hsl(228.5, 77.2%, 51.5%)" stroke-width="1.5"></path><path d="M1558.51 961.43L1256.97 974.72" stroke="hsl(228.5, 77.2%, 51.5%)" stroke-width="1.5"></path><path d="M1558.51 961.43L1742.84 712.06" stroke="hsl(228.5, 77.2%, 51.5%)" stroke-width="1.5"></path><path d="M1689.36 -87.56L1689.36 -87.56" stroke="hsl(228.5, 77.2%, 51.5%)" stroke-width="1.5"></path><path d="M1689.36 -87.56L1587.63 -59.93" stroke="hsl(228.5, 77.2%, 51.5%)" stroke-width="1.5"></path><path d="M1689.36 -87.56L1761.11 62.27" stroke="hsl(228.5, 77.2%, 51.5%)" stroke-width="1.5"></path><path d="M1689.36 -87.56L1556.91 102.78" stroke="hsl(228.5, 77.2%, 51.5%)" stroke-width="1.5"></path><path d="M1689.36 -87.56L1415.88 -48.94" stroke="hsl(228.5, 77.2%, 51.5%)" stroke-width="1.5"></path><path d="M1761.11 62.27L1761.11 62.27" stroke="hsl(228.5, 77.2%, 51.5%)" stroke-width="1.5"></path><path d="M1761.11 62.27L1718.21 195.15" stroke="hsl(228.5, 77.2%, 51.5%)" stroke-width="1.5"></path><path d="M1761.11 62.27L1556.91 102.78" stroke="hsl(228.5, 77.2%, 51.5%)" stroke-width="1.5"></path><path d="M1761.11 62.27L1587.63 -59.93" stroke="hsl(228.5, 77.2%, 51.5%)" stroke-width="1.5"></path><path d="M1749.03 815.45L1749.03 815.45" stroke="hsl(228.5, 77.2%, 51.5%)" stroke-width="1.5"></path><path d="M1749.03 815.45L1742.84 712.06" stroke="hsl(228.5, 77.2%, 51.5%)" stroke-width="1.5"></path><path d="M-86.5 829.37L-86.5 829.37" stroke="hsl(228.5, 77.2%, 51.5%)" stroke-width="1.5"></path><path d="M-86.5 829.37L-62.01 941.91" stroke="hsl(228.5, 77.2%, 51.5%)" stroke-width="1.5"></path><path d="M-86.5 829.37L47.98 854.9" stroke="hsl(228.5, 77.2%, 51.5%)" stroke-width="1.5"></path><path d="M-86.5 829.37L87.24 978.06" stroke="hsl(228.5, 77.2%, 51.5%)" stroke-width="1.5"></path><path d="M-86.5 829.37L223.78 833.57" stroke="hsl(228.5, 77.2%, 51.5%)" stroke-width="1.5"></path><path d="M-62.01 941.91L-62.01 941.91" stroke="hsl(228.5, 77.2%, 51.5%)" stroke-width="1.5"></path><path d="M-62.01 941.91L47.98 854.9" stroke="hsl(228.5, 77.2%, 51.5%)" stroke-width="1.5"></path><path d="M-62.01 941.91L87.24 978.06" stroke="hsl(228.5, 77.2%, 51.5%)" stroke-width="1.5"></path><path d="M-62.01 941.91L198.59 990.28" stroke="hsl(228.5, 77.2%, 51.5%)" stroke-width="1.5"></path><path d="M-62.01 941.91L223.78 833.57" stroke="hsl(228.5, 77.2%, 51.5%)" stroke-width="1.5"></path><path d="M-62.01 941.91L351.36 1008.8" stroke="hsl(228.5, 77.2%, 51.5%)" stroke-width="1.5"></path><path d="M47.98 854.9L47.98 854.9" stroke="hsl(228.5, 77.2%, 51.5%)" stroke-width="1.5"></path><path d="M47.98 854.9L87.24 978.06" stroke="hsl(228.5, 77.2%, 51.5%)" stroke-width="1.5"></path><path d="M47.98 854.9L223.78 833.57" stroke="hsl(228.5, 77.2%, 51.5%)" stroke-width="1.5"></path><path d="M47.98 854.9L198.59 990.28" stroke="hsl(228.5, 77.2%, 51.5%)" stroke-width="1.5"></path><path d="M47.98 854.9L370.64 847.68" stroke="hsl(228.5, 77.2%, 51.5%)" stroke-width="1.5"></path><path d="M87.24 978.06L87.24 978.06" stroke="hsl(228.5, 77.2%, 51.5%)" stroke-width="1.5"></path><path d="M87.24 978.06L198.59 990.28" stroke="hsl(228.5, 77.2%, 51.5%)" stroke-width="1.5"></path><path d="M223.78 833.57L223.78 833.57" stroke="hsl(228.5, 77.2%, 51.5%)" stroke-width="1.5"></path><path d="M223.78 833.57L370.64 847.68" stroke="hsl(228.5, 77.2%, 51.5%)" stroke-width="1.5"></path><path d="M223.78 833.57L198.59 990.28" stroke="hsl(228.5, 77.2%, 51.5%)" stroke-width="1.5"></path><path d="M223.78 833.57L87.24 978.06" stroke="hsl(228.5, 77.2%, 51.5%)" stroke-width="1.5"></path><path d="M198.59 990.28L198.59 990.28" stroke="hsl(228.5, 77.2%, 51.5%)" stroke-width="1.5"></path><path d="M198.59 990.28L351.36 1008.8" stroke="hsl(228.5, 77.2%, 51.5%)" stroke-width="1.5"></path><path d="M370.64 847.68L370.64 847.68" stroke="hsl(228.5, 77.2%, 51.5%)" stroke-width="1.5"></path><path d="M370.64 847.68L351.36 1008.8" stroke="hsl(228.5, 77.2%, 51.5%)" stroke-width="1.5"></path><path d="M370.64 847.68L533.64 858.34" stroke="hsl(228.5, 77.2%, 51.5%)" stroke-width="1.5"></path><path d="M370.64 847.68L536.23 991.79" stroke="hsl(228.5, 77.2%, 51.5%)" stroke-width="1.5"></path><path d="M351.36 1008.8L351.36 1008.8" stroke="hsl(228.5, 77.2%, 51.5%)" stroke-width="1.5"></path><path d="M351.36 1008.8L536.23 991.79" stroke="hsl(228.5, 77.2%, 51.5%)" stroke-width="1.5"></path><path d="M351.36 1008.8L223.78 833.57" stroke="hsl(228.5, 77.2%, 51.5%)" stroke-width="1.5"></path><path d="M351.36 1008.8L533.64 858.34" stroke="hsl(228.5, 77.2%, 51.5%)" stroke-width="1.5"></path><path d="M351.36 1008.8L87.24 978.06" stroke="hsl(228.5, 77.2%, 51.5%)" stroke-width="1.5"></path><path d="M533.64 858.34L533.64 858.34" stroke="hsl(228.5, 77.2%, 51.5%)" stroke-width="1.5"></path><path d="M673.19 694.04L673.19 694.04" stroke="hsl(228.5, 77.2%, 51.5%)" stroke-width="1.5"></path><path d="M673.19 694.04L862.39 657.12" stroke="hsl(228.5, 77.2%, 51.5%)" stroke-width="1.5"></path><path d="M673.19 694.04L846.51 798.92" stroke="hsl(228.5, 77.2%, 51.5%)" stroke-width="1.5"></path><path d="M673.19 694.04L533.64 858.34" stroke="hsl(228.5, 77.2%, 51.5%)" stroke-width="1.5"></path><path d="M673.19 694.04L703.37 981.57" stroke="hsl(228.5, 77.2%, 51.5%)" stroke-width="1.5"></path><path d="M703.37 981.57L703.37 981.57" stroke="hsl(228.5, 77.2%, 51.5%)" stroke-width="1.5"></path><path d="M703.37 981.57L838.72 1004.31" stroke="hsl(228.5, 77.2%, 51.5%)" stroke-width="1.5"></path><path d="M703.37 981.57L533.64 858.34" stroke="hsl(228.5, 77.2%, 51.5%)" stroke-width="1.5"></path><path d="M703.37 981.57L846.51 798.92" stroke="hsl(228.5, 77.2%, 51.5%)" stroke-width="1.5"></path><path d="M703.37 981.57L984.63 979.08" stroke="hsl(228.5, 77.2%, 51.5%)" stroke-width="1.5"></path><path d="M862.39 657.12L862.39 657.12" stroke="hsl(228.5, 77.2%, 51.5%)" stroke-width="1.5"></path><path d="M862.39 657.12L846.51 798.92" stroke="hsl(228.5, 77.2%, 51.5%)" stroke-width="1.5"></path><path d="M862.39 657.12L955.53 822.55" stroke="hsl(228.5, 77.2%, 51.5%)" stroke-width="1.5"></path><path d="M862.39 657.12L972.26 500.81" stroke="hsl(228.5, 77.2%, 51.5%)" stroke-width="1.5"></path><path d="M846.51 798.92L846.51 798.92" stroke="hsl(228.5, 77.2%, 51.5%)" stroke-width="1.5"></path><path d="M846.51 798.92L955.53 822.55" stroke="hsl(228.5, 77.2%, 51.5%)" stroke-width="1.5"></path><path d="M846.51 798.92L838.72 1004.31" stroke="hsl(228.5, 77.2%, 51.5%)" stroke-width="1.5"></path><path d="M838.72 1004.31L838.72 1004.31" stroke="hsl(228.5, 77.2%, 51.5%)" stroke-width="1.5"></path><path d="M838.72 1004.31L984.63 979.08" stroke="hsl(228.5, 77.2%, 51.5%)" stroke-width="1.5"></path><path d="M972.26 500.81L972.26 500.81" stroke="hsl(228.5, 77.2%, 51.5%)" stroke-width="1.5"></path><path d="M972.26 500.81L1097.53 531.33" stroke="hsl(228.5, 77.2%, 51.5%)" stroke-width="1.5"></path><path d="M972.26 500.81L1113.1 387.55" stroke="hsl(228.5, 77.2%, 51.5%)" stroke-width="1.5"></path><path d="M955.53 822.55L955.53 822.55" stroke="hsl(228.5, 77.2%, 51.5%)" stroke-width="1.5"></path><path d="M984.63 979.08L984.63 979.08" stroke="hsl(228.5, 77.2%, 51.5%)" stroke-width="1.5"></path><path d="M984.63 979.08L1138.23 951.26" stroke="hsl(228.5, 77.2%, 51.5%)" stroke-width="1.5"></path><path d="M984.63 979.08L955.53 822.55" stroke="hsl(228.5, 77.2%, 51.5%)" stroke-width="1.5"></path><path d="M984.63 979.08L1132.41 822.92" stroke="hsl(228.5, 77.2%, 51.5%)" stroke-width="1.5"></path><path d="M984.63 979.08L846.51 798.92" stroke="hsl(228.5, 77.2%, 51.5%)" stroke-width="1.5"></path><path d="M1113.1 387.55L1113.1 387.55" stroke="hsl(228.5, 77.2%, 51.5%)" stroke-width="1.5"></path><path d="M1113.1 387.55L1097.53 531.33" stroke="hsl(228.5, 77.2%, 51.5%)" stroke-width="1.5"></path><path d="M1113.1 387.55L1290.61 377.98" stroke="hsl(228.5, 77.2%, 51.5%)" stroke-width="1.5"></path><path d="M1097.53 531.33L1097.53 531.33" stroke="hsl(228.5, 77.2%, 51.5%)" stroke-width="1.5"></path><path d="M1097.53 531.33L1156.86 701.85" stroke="hsl(228.5, 77.2%, 51.5%)" stroke-width="1.5"></path><path d="M1097.53 531.33L1268.9 673.37" stroke="hsl(228.5, 77.2%, 51.5%)" stroke-width="1.5"></path><path d="M1097.53 531.33L962.55 709.1" stroke="hsl(228.5, 77.2%, 51.5%)" stroke-width="1.5"></path><path d="M1156.86 701.85L1156.86 701.85" stroke="hsl(228.5, 77.2%, 51.5%)" stroke-width="1.5"></path><path d="M1156.86 701.85L1268.9 673.37" stroke="hsl(228.5, 77.2%, 51.5%)" stroke-width="1.5"></path><path d="M1156.86 701.85L1132.41 822.92" stroke="hsl(228.5, 77.2%, 51.5%)" stroke-width="1.5"></path><path d="M1156.86 701.85L1284.17 802.12" stroke="hsl(228.5, 77.2%, 51.5%)" stroke-width="1.5"></path><path d="M1156.86 701.85L962.55 709.1" stroke="hsl(228.5, 77.2%, 51.5%)" stroke-width="1.5"></path><path d="M1132.41 822.92L1132.41 822.92" stroke="hsl(228.5, 77.2%, 51.5%)" stroke-width="1.5"></path><path d="M1132.41 822.92L1138.23 951.26" stroke="hsl(228.5, 77.2%, 51.5%)" stroke-width="1.5"></path><path d="M1132.41 822.92L1284.17 802.12" stroke="hsl(228.5, 77.2%, 51.5%)" stroke-width="1.5"></path><path d="M1138.23 951.26L1138.23 951.26" stroke="hsl(228.5, 77.2%, 51.5%)" stroke-width="1.5"></path><path d="M1138.23 951.26L1284.17 802.12" stroke="hsl(228.5, 77.2%, 51.5%)" stroke-width="1.5"></path><path d="M1138.23 951.26L955.53 822.55" stroke="hsl(228.5, 77.2%, 51.5%)" stroke-width="1.5"></path><path d="M1297.8 65.54L1297.8 65.54" stroke="hsl(228.5, 77.2%, 51.5%)" stroke-width="1.5"></path><path d="M1297.8 65.54L1415.88 -48.94" stroke="hsl(228.5, 77.2%, 51.5%)" stroke-width="1.5"></path><path d="M1297.8 65.54L1261.27 257.64" stroke="hsl(228.5, 77.2%, 51.5%)" stroke-width="1.5"></path><path d="M1297.8 65.54L1460.48 240.39" stroke="hsl(228.5, 77.2%, 51.5%)" stroke-width="1.5"></path><path d="M1261.27 257.64L1261.27 257.64" stroke="hsl(228.5, 77.2%, 51.5%)" stroke-width="1.5"></path><path d="M1261.27 257.64L1290.61 377.98" stroke="hsl(228.5, 77.2%, 51.5%)" stroke-width="1.5"></path><path d="M1261.27 257.64L1423.92 355.57" stroke="hsl(228.5, 77.2%, 51.5%)" stroke-width="1.5"></path><path d="M1290.61 377.98L1290.61 377.98" stroke="hsl(228.5, 77.2%, 51.5%)" stroke-width="1.5"></path><path d="M1290.61 377.98L1423.92 355.57" stroke="hsl(228.5, 77.2%, 51.5%)" stroke-width="1.5"></path><path d="M1268.9 673.37L1268.9 673.37" stroke="hsl(228.5, 77.2%, 51.5%)" stroke-width="1.5"></path><path d="M1268.9 673.37L1445.35 672.23" stroke="hsl(228.5, 77.2%, 51.5%)" stroke-width="1.5"></path><path d="M1268.9 673.37L1402.16 550.21" stroke="hsl(228.5, 77.2%, 51.5%)" stroke-width="1.5"></path><path d="M1268.9 673.37L1132.41 822.92" stroke="hsl(228.5, 77.2%, 51.5%)" stroke-width="1.5"></path><path d="M1415.88 -48.94L1415.88 -48.94" stroke="hsl(228.5, 77.2%, 51.5%)" stroke-width="1.5"></path><path d="M1415.88 -48.94L1433.73 89.4" stroke="hsl(228.5, 77.2%, 51.5%)" stroke-width="1.5"></path><path d="M1415.88 -48.94L1587.63 -59.93" stroke="hsl(228.5, 77.2%, 51.5%)" stroke-width="1.5"></path><path d="M1415.88 -48.94L1556.91 102.78" stroke="hsl(228.5, 77.2%, 51.5%)" stroke-width="1.5"></path><path d="M1415.88 -48.94L1460.48 240.39" stroke="hsl(228.5, 77.2%, 51.5%)" stroke-width="1.5"></path><path d="M1423.92 355.57L1423.92 355.57" stroke="hsl(228.5, 77.2%, 51.5%)" stroke-width="1.5"></path><path d="M1423.92 355.57L1559.24 393.94" stroke="hsl(228.5, 77.2%, 51.5%)" stroke-width="1.5"></path><path d="M1402.16 550.21L1402.16 550.21" stroke="hsl(228.5, 77.2%, 51.5%)" stroke-width="1.5"></path><path d="M1402.16 550.21L1445.35 672.23" stroke="hsl(228.5, 77.2%, 51.5%)" stroke-width="1.5"></path><path d="M1402.16 550.21L1548.73 650.07" stroke="hsl(228.5, 77.2%, 51.5%)" stroke-width="1.5"></path><path d="M1445.35 672.23L1445.35 672.23" stroke="hsl(228.5, 77.2%, 51.5%)" stroke-width="1.5"></path><path d="M1445.35 672.23L1548.73 650.07" stroke="hsl(228.5, 77.2%, 51.5%)" stroke-width="1.5"></path><path d="M1457.37 947.01L1457.37 947.01" stroke="hsl(228.5, 77.2%, 51.5%)" stroke-width="1.5"></path><path d="M1457.37 947.01L1593.59 809.08" stroke="hsl(228.5, 77.2%, 51.5%)" stroke-width="1.5"></path><path d="M1457.37 947.01L1256.97 974.72" stroke="hsl(228.5, 77.2%, 51.5%)" stroke-width="1.5"></path><path d="M1457.37 947.01L1284.17 802.12" stroke="hsl(228.5, 77.2%, 51.5%)" stroke-width="1.5"></path><path d="M1457.37 947.01L1689.34 977.92" stroke="hsl(228.5, 77.2%, 51.5%)" stroke-width="1.5"></path><path d="M1587.63 -59.93L1587.63 -59.93" stroke="hsl(228.5, 77.2%, 51.5%)" stroke-width="1.5"></path><path d="M1587.63 -59.93L1556.91 102.78" stroke="hsl(228.5, 77.2%, 51.5%)" stroke-width="1.5"></path><path d="M1587.63 -59.93L1433.73 89.4" stroke="hsl(228.5, 77.2%, 51.5%)" stroke-width="1.5"></path><path d="M1556.91 102.78L1556.91 102.78" stroke="hsl(228.5, 77.2%, 51.5%)" stroke-width="1.5"></path><path d="M1556.91 102.78L1563.61 255.93" stroke="hsl(228.5, 77.2%, 51.5%)" stroke-width="1.5"></path><path d="M1556.91 102.78L1460.48 240.39" stroke="hsl(228.5, 77.2%, 51.5%)" stroke-width="1.5"></path><path d="M1556.91 102.78L1718.21 195.15" stroke="hsl(228.5, 77.2%, 51.5%)" stroke-width="1.5"></path><path d="M1559.24 393.94L1559.24 393.94" stroke="hsl(228.5, 77.2%, 51.5%)" stroke-width="1.5"></path><path d="M1548.73 650.07L1548.73 650.07" stroke="hsl(228.5, 77.2%, 51.5%)" stroke-width="1.5"></path><path d="M1718.21 195.15L1718.21 195.15" stroke="hsl(228.5, 77.2%, 51.5%)" stroke-width="1.5"></path><path d="M1718.21 195.15L1563.61 255.93" stroke="hsl(228.5, 77.2%, 51.5%)" stroke-width="1.5"></path><path d="M1718.21 195.15L1759.28 389.2" stroke="hsl(228.5, 77.2%, 51.5%)" stroke-width="1.5"></path><path d="M1759.28 389.2L1759.28 389.2" stroke="hsl(228.5, 77.2%, 51.5%)" stroke-width="1.5"></path><path d="M1759.28 389.2L1710.27 535.06" stroke="hsl(228.5, 77.2%, 51.5%)" stroke-width="1.5"></path><path d="M1759.28 389.2L1559.24 393.94" stroke="hsl(228.5, 77.2%, 51.5%)" stroke-width="1.5"></path><path d="M1759.28 389.2L1563.61 255.93" stroke="hsl(228.5, 77.2%, 51.5%)" stroke-width="1.5"></path><path d="M1759.28 389.2L1541.46 490.16" stroke="hsl(228.5, 77.2%, 51.5%)" stroke-width="1.5"></path><path d="M1759.28 389.2L1742.84 712.06" stroke="hsl(228.5, 77.2%, 51.5%)" stroke-width="1.5"></path><path d="M1710.27 535.06L1710.27 535.06" stroke="hsl(228.5, 77.2%, 51.5%)" stroke-width="1.5"></path><path d="M1710.27 535.06L1742.84 712.06" stroke="hsl(228.5, 77.2%, 51.5%)" stroke-width="1.5"></path><path d="M1710.27 535.06L1548.73 650.07" stroke="hsl(228.5, 77.2%, 51.5%)" stroke-width="1.5"></path><path d="M1742.84 712.06L1742.84 712.06" stroke="hsl(228.5, 77.2%, 51.5%)" stroke-width="1.5"></path><path d="M1742.84 712.06L1548.73 650.07" stroke="hsl(228.5, 77.2%, 51.5%)" stroke-width="1.5"></path><path d="M1742.84 712.06L1689.34 977.92" stroke="hsl(228.5, 77.2%, 51.5%)" stroke-width="1.5"></path><path d="M1689.34 977.92L1689.34 977.92" stroke="hsl(228.5, 77.2%, 51.5%)" stroke-width="1.5"></path><path d="M1689.34 977.92L1749.03 815.45" stroke="hsl(228.5, 77.2%, 51.5%)" stroke-width="1.5"></path><circle r="25" cx="508.2" cy="671.02" fill="url(#SvgjsRadialGradient1043)"></circle><circle r="25" cx="536.23" cy="991.79" fill="url(#SvgjsRadialGradient1043)"></circle><circle r="25" cx="643.73" cy="835.18" fill="url(#SvgjsRadialGradient1043)"></circle><circle r="25" cx="962.55" cy="709.1" fill="url(#SvgjsRadialGradient1043)"></circle><circle r="25" cx="1285.87" cy="545.99" fill="url(#SvgjsRadialGradient1043)"></circle><circle r="25" cx="1284.17" cy="802.12" fill="url(#SvgjsRadialGradient1043)"></circle><circle r="25" cx="1256.97" cy="974.72" fill="url(#SvgjsRadialGradient1043)"></circle><circle r="25" cx="1433.73" cy="89.4" fill="url(#SvgjsRadialGradient1043)"></circle><circle r="25" cx="1460.48" cy="240.39" fill="url(#SvgjsRadialGradient1043)"></circle><circle r="25" cx="1563.61" cy="255.93" fill="url(#SvgjsRadialGradient1043)"></circle><circle r="25" cx="1541.46" cy="490.16" fill="url(#SvgjsRadialGradient1043)"></circle><circle r="25" cx="1593.59" cy="809.08" fill="url(#SvgjsRadialGradient1043)"></circle><circle r="25" cx="1558.51" cy="961.43" fill="url(#SvgjsRadialGradient1043)"></circle><circle r="25" cx="1689.36" cy="-87.56" fill="url(#SvgjsRadialGradient1043)"></circle><circle r="25" cx="1761.11" cy="62.27" fill="url(#SvgjsRadialGradient1043)"></circle><circle r="25" cx="1749.03" cy="815.45" fill="url(#SvgjsRadialGradient1043)"></circle><circle r="5" cx="-86.5" cy="829.37" fill="#8b9ad9"></circle><circle r="5" cx="-62.01" cy="941.91" fill="#8b9ad9"></circle><circle r="5" cx="47.98" cy="854.9" fill="#8b9ad9"></circle><circle r="5" cx="87.24" cy="978.06" fill="#8b9ad9"></circle><circle r="5" cx="223.78" cy="833.57" fill="#8b9ad9"></circle><circle r="5" cx="198.59" cy="990.28" fill="#8b9ad9"></circle><circle r="5" cx="370.64" cy="847.68" fill="#8b9ad9"></circle><circle r="5" cx="351.36" cy="1008.8" fill="#8b9ad9"></circle><circle r="5" cx="533.64" cy="858.34" fill="#8b9ad9"></circle><circle r="5" cx="673.19" cy="694.04" fill="#8b9ad9"></circle><circle r="5" cx="703.37" cy="981.57" fill="#8b9ad9"></circle><circle r="5" cx="862.39" cy="657.12" fill="#8b9ad9"></circle><circle r="5" cx="846.51" cy="798.92" fill="#8b9ad9"></circle><circle r="5" cx="838.72" cy="1004.31" fill="#8b9ad9"></circle><circle r="5" cx="972.26" cy="500.81" fill="#8b9ad9"></circle><circle r="5" cx="955.53" cy="822.55" fill="#8b9ad9"></circle><circle r="5" cx="984.63" cy="979.08" fill="#8b9ad9"></circle><circle r="5" cx="1113.1" cy="387.55" fill="#8b9ad9"></circle><circle r="5" cx="1097.53" cy="531.33" fill="#8b9ad9"></circle><circle r="5" cx="1156.86" cy="701.85" fill="#8b9ad9"></circle><circle r="5" cx="1132.41" cy="822.92" fill="#8b9ad9"></circle><circle r="5" cx="1138.23" cy="951.26" fill="#8b9ad9"></circle><circle r="5" cx="1297.8" cy="65.54" fill="#8b9ad9"></circle><circle r="5" cx="1261.27" cy="257.64" fill="#8b9ad9"></circle><circle r="5" cx="1290.61" cy="377.98" fill="#8b9ad9"></circle><circle r="5" cx="1268.9" cy="673.37" fill="#8b9ad9"></circle><circle r="5" cx="1415.88" cy="-48.94" fill="#8b9ad9"></circle><circle r="5" cx="1423.92" cy="355.57" fill="#8b9ad9"></circle><circle r="5" cx="1402.16" cy="550.21" fill="#8b9ad9"></circle><circle r="5" cx="1445.35" cy="672.23" fill="#8b9ad9"></circle><circle r="5" cx="1457.37" cy="947.01" fill="#8b9ad9"></circle><circle r="5" cx="1587.63" cy="-59.93" fill="#8b9ad9"></circle><circle r="5" cx="1556.91" cy="102.78" fill="#8b9ad9"></circle><circle r="5" cx="1559.24" cy="393.94" fill="#8b9ad9"></circle><circle r="5" cx="1548.73" cy="650.07" fill="#8b9ad9"></circle><circle r="5" cx="1718.21" cy="195.15" fill="#8b9ad9"></circle><circle r="5" cx="1759.28" cy="389.2" fill="#8b9ad9"></circle><circle r="5" cx="1710.27" cy="535.06" fill="#8b9ad9"></circle><circle r="5" cx="1742.84" cy="712.06" fill="#8b9ad9"></circle><circle r="5" cx="1689.34" cy="977.92" fill="#8b9ad9"></circle></g><defs><mask id="SvgjsMask1041"><rect width="1600" height="900" fill="#ffffff"></rect></mask><linearGradient x1="10.94%" y1="-19.44%" x2="89.06%" y2="119.44%" gradientUnits="userSpaceOnUse" id="SvgjsLinearGradient1042"><stop stop-color="#0e2a47" offset="0"></stop><stop stop-color="#00459e" offset="1"></stop></linearGradient><radialGradient id="SvgjsRadialGradient1043"><stop stop-color="#ffffff" offset="0.1"></stop><stop stop-color="#1735b3" offset="0.2"></stop><stop stop-color="rgba(23, 53, 179, 0)" offset="1"></stop></radialGradient></defs></svg>